<?xml version="1.0" encoding="UTF-8"?>
<svg id="Layer_2" data-name="Layer 2" xmlns="http://www.w3.org/2000/svg" width="264.53" height="55.91" viewBox="0 0 264.53 55.91">
  <defs>
    <style>
      .cls-1 {
        fill: #010101;
      }
    </style>
  </defs>
  <g id="Layer_2-2" data-name="Layer 2">
    <g id="Layer_1-2" data-name="Layer 1-2">
      <g id="Layer_2-2" data-name="Layer 2-2">
        <rect class="cls-1" x="199.65" width="1.18" height="55.88"/>
      </g>
      <g>
        <path d="m223.75,20.7l2.23,6.31c.13.37.43,1.32.8,3.17-.17-2.43-.22-3.67-.22-4.27v-5.21h2.41v14.47h-2.41l-2.71-7.4c-.28-.78-.56-1.71-.85-2.95.2,2.19.24,3.88.24,4.19v6.16h-2.41v-14.47h2.92Z"/>
        <path d="m239.81,20.7v2.54h-4.56v3.36h3.49v2.41h-3.49v3.62h4.56v2.54h-7.53v-14.47h7.53Z"/>
        <path d="m244.28,20.7l.8,6.81c.2,1.58.17,2.52.28,3.8.11-1.39.46-4.19.46-4.17l1.06-6.44h2.67l1.11,6.51c.17,1.02.2,1.58.41,4.12.07-1.32.17-3.06.33-4.19l.85-6.44h2.58l-2.63,14.47h-2.6l-1.19-6.83c-.3-1.74-.37-2.69-.39-3.49-.09.87-.24,2.3-.46,3.6l-1.17,6.73h-2.6l-2.65-14.47h3.15,0Z"/>
        <path d="m264.31,23.8l-2.21.98c-.24-1.04-.78-1.69-1.65-1.69-.8,0-1.26.56-1.26,1.41,0,.91.35,1.28,2.17,2.06,2.54,1.08,3.17,2.52,3.17,4.25,0,2.78-1.67,4.58-4.38,4.58-2.41,0-3.8-1.32-4.25-3.91l2.37-.82c.33,1.47.82,2.13,1.89,2.13.95,0,1.48-.65,1.48-1.54,0-.8-.41-1.28-1.32-1.69-3.1-1.41-3.88-2.6-3.88-4.86,0-1.84,1.35-4.21,3.95-4.21,1.91,0,3.3,1,3.95,3.32h-.03Z"/>
      </g>
    </g>
    <g>
      <g>
        <polygon points="60.25 55.8 35.96 13.92 51.72 4.79 81.28 55.75 60.25 55.8"/>
        <polygon points="53.22 55.81 33.72 22.17 17.96 31.31 32.19 55.85 53.22 55.81"/>
        <polygon points="25.19 55.87 15.76 39.6 0 48.74 4.16 55.91 25.19 55.87"/>
      </g>
      <path d="m173.63,36.52c-.48.95-1.35,2.3-2.15,3.1h-63.83c-.48-.63-1.59-2.06-2.07-3.1h68.05Zm-4.77,6.36h-58.59c.95,1.11,1.99,2.14,3.02,2.86h52.31c1.27-.72,2.46-1.75,3.26-2.86h0Zm-7.23,5.88h-16.06c-.47,2.54-.47,4.93-.47,6.68,4.69-.32,10.89-2.47,16.53-6.68h0Zm17.96-33.07c-7.32.48-17.81,5.41-24.64,13.43-1.27,1.43-2.38,2.86-3.26,4.37h23.53c3.18-6.36,4.85-12.64,4.38-17.81h0Zm-45.63,39.74c.08-1.75.08-4.13-.24-6.68h-16.21c5.73,4.21,11.92,6.36,16.46,6.68h0Zm5.64.48c1.67-1.75,3.42-4.13,5.01-7.15h-10.1c1.67,3.02,3.26,5.41,5.09,7.15h0Zm-12-22.42c-.87-1.51-2.07-2.94-3.26-4.37-6.84-8.02-17.41-12.96-24.64-13.43-.48,5.17,1.11,11.45,4.29,17.81h23.61Zm22.18,0c.16-1.83.32-3.58.32-5.64,0-11.13-5.01-22.66-10.49-27.82-5.56,5.16-10.49,16.69-10.49,27.82,0,2.06,0,3.81.32,5.64h20.35Z"/>
    </g>
  </g>
</svg>